<?xml version="1.0"?>
<svg xmlns="http://www.w3.org/2000/svg" xmlns:xlink="http://www.w3.org/1999/xlink" version="1.1" viewBox="0 0 252 252" width="128px" height="128px"><g transform=""><g fill="none" fill-rule="nonzero" stroke="none" stroke-width="1" stroke-linecap="butt" stroke-linejoin="miter" stroke-miterlimit="10" stroke-dasharray="" stroke-dashoffset="0" font-family="none" font-weight="none" font-size="none" text-anchor="none" style="mix-blend-mode: normal"><path d="M0,252v-252h252v252z" fill="none"/><path d="M32.76,252c-18.09285,0 -32.76,-14.66715 -32.76,-32.76v-186.48c0,-18.09285 14.66715,-32.76 32.76,-32.76h186.48c18.09285,0 32.76,14.66715 32.76,32.76v186.48c0,18.09285 -14.66715,32.76 -32.76,32.76z" fill="#e7e6e6"/><g fill="#595959"><g id="surface1"><path d="M15.55103,0.315c-8.36264,0 -15.23603,6.8734 -15.23603,15.23603v220.89793c0,8.36264 6.8734,15.23603 15.23603,15.23603h220.89793c8.36264,0 15.23603,-6.8734 15.23603,-15.23603v-220.89793c0,-8.36264 -6.8734,-15.23603 -15.23603,-15.23603zM15.55103,8.694h220.89793c3.79673,0 6.85703,3.0603 6.85703,6.85703v220.89793c0,3.79673 -3.0603,6.85703 -6.85703,6.85703h-220.89793c-3.79673,0 -6.85703,-3.0603 -6.85703,-6.85703v-220.89793c0,-3.79673 3.0603,-6.85703 6.85703,-6.85703zM33.831,29.6415c-2.3075,0 -4.1895,1.882 -4.1895,4.1895c0,2.3075 1.882,4.1895 4.1895,4.1895c2.3075,0 4.1895,-1.882 4.1895,-4.1895c0,-2.3075 -1.882,-4.1895 -4.1895,-4.1895zM50.589,29.6415c-2.3075,0 -4.1895,1.882 -4.1895,4.1895c0,2.3075 1.882,4.1895 4.1895,4.1895c2.3075,0 4.1895,-1.882 4.1895,-4.1895c0,-2.3075 -1.882,-4.1895 -4.1895,-4.1895zM67.347,29.6415c-2.3075,0 -4.1895,1.882 -4.1895,4.1895c0,2.3075 1.882,4.1895 4.1895,4.1895c2.3075,0 4.1895,-1.882 4.1895,-4.1895c0,-2.3075 -1.882,-4.1895 -4.1895,-4.1895zM84.105,29.6415c-2.3075,0 -4.1895,1.882 -4.1895,4.1895c0,2.3075 1.882,4.1895 4.1895,4.1895c2.3075,0 4.1895,-1.882 4.1895,-4.1895c0,-2.3075 -1.882,-4.1895 -4.1895,-4.1895zM100.863,29.6415c-2.3075,0 -4.1895,1.882 -4.1895,4.1895c0,2.3075 1.882,4.1895 4.1895,4.1895c2.3075,0 4.1895,-1.882 4.1895,-4.1895c0,-2.3075 -1.882,-4.1895 -4.1895,-4.1895zM117.621,29.6415c-2.3075,0 -4.1895,1.882 -4.1895,4.1895c0,2.3075 1.882,4.1895 4.1895,4.1895c2.3075,0 4.1895,-1.882 4.1895,-4.1895c0,-2.3075 -1.882,-4.1895 -4.1895,-4.1895zM134.379,29.6415c-2.3075,0 -4.1895,1.882 -4.1895,4.1895c0,2.3075 1.882,4.1895 4.1895,4.1895c2.3075,0 4.1895,-1.882 4.1895,-4.1895c0,-2.3075 -1.882,-4.1895 -4.1895,-4.1895zM151.137,29.6415c-2.3075,0 -4.1895,1.882 -4.1895,4.1895c0,2.3075 1.882,4.1895 4.1895,4.1895c2.3075,0 4.1895,-1.882 4.1895,-4.1895c0,-2.3075 -1.882,-4.1895 -4.1895,-4.1895zM167.895,29.6415c-2.3075,0 -4.1895,1.882 -4.1895,4.1895c0,2.3075 1.882,4.1895 4.1895,4.1895c2.3075,0 4.1895,-1.882 4.1895,-4.1895c0,-2.3075 -1.882,-4.1895 -4.1895,-4.1895zM184.653,29.6415c-2.3075,0 -4.1895,1.882 -4.1895,4.1895c0,2.3075 1.882,4.1895 4.1895,4.1895c2.3075,0 4.1895,-1.882 4.1895,-4.1895c0,-2.3075 -1.882,-4.1895 -4.1895,-4.1895zM201.411,29.6415c-2.3075,0 -4.1895,1.882 -4.1895,4.1895c0,2.3075 1.882,4.1895 4.1895,4.1895c2.3075,0 4.1895,-1.882 4.1895,-4.1895c0,-2.3075 -1.882,-4.1895 -4.1895,-4.1895zM218.169,29.6415c-2.3075,0 -4.1895,1.882 -4.1895,4.1895c0,2.3075 1.882,4.1895 4.1895,4.1895c2.3075,0 4.1895,-1.882 4.1895,-4.1895c0,-2.3075 -1.882,-4.1895 -4.1895,-4.1895zM33.831,46.3995c-2.3075,0 -4.1895,1.882 -4.1895,4.1895c0,2.3075 1.882,4.1895 4.1895,4.1895c2.3075,0 4.1895,-1.882 4.1895,-4.1895c0,-2.3075 -1.882,-4.1895 -4.1895,-4.1895zM218.169,46.3995c-2.3075,0 -4.1895,1.882 -4.1895,4.1895c0,2.3075 1.882,4.1895 4.1895,4.1895c2.3075,0 4.1895,-1.882 4.1895,-4.1895c0,-2.3075 -1.882,-4.1895 -4.1895,-4.1895zM115.52625,58.968c-31.19213,0 -56.55825,25.36612 -56.55825,56.55825c0,31.19214 25.36612,56.55825 56.55825,56.55825c14.09047,0 26.95354,-5.20414 36.87087,-13.76316l36.82178,36.80541l5.90785,-5.90785l-36.80541,-36.82178c8.55902,-9.91733 13.76316,-22.78041 13.76316,-36.87087c0,-31.19213 -25.36611,-56.55825 -56.55825,-56.55825zM33.831,63.1575c-2.3075,0 -4.1895,1.882 -4.1895,4.1895c0,2.3075 1.882,4.1895 4.1895,4.1895c2.3075,0 4.1895,-1.882 4.1895,-4.1895c0,-2.3075 -1.882,-4.1895 -4.1895,-4.1895zM218.169,63.1575c-2.3075,0 -4.1895,1.882 -4.1895,4.1895c0,2.3075 1.882,4.1895 4.1895,4.1895c2.3075,0 4.1895,-1.882 4.1895,-4.1895c0,-2.3075 -1.882,-4.1895 -4.1895,-4.1895zM115.52625,67.347c26.65897,0 48.17925,21.52028 48.17925,48.17925c0,26.65897 -21.52028,48.17925 -48.17925,48.17925c-26.65897,0 -48.17925,-21.52028 -48.17925,-48.17925c0,-26.65897 21.52028,-48.17925 48.17925,-48.17925zM33.831,79.9155c-2.3075,0 -4.1895,1.882 -4.1895,4.1895c0,2.3075 1.882,4.1895 4.1895,4.1895c2.3075,0 4.1895,-1.882 4.1895,-4.1895c0,-2.3075 -1.882,-4.1895 -4.1895,-4.1895zM218.169,79.9155c-2.3075,0 -4.1895,1.882 -4.1895,4.1895c0,2.3075 1.882,4.1895 4.1895,4.1895c2.3075,0 4.1895,-1.882 4.1895,-4.1895c0,-2.3075 -1.882,-4.1895 -4.1895,-4.1895zM33.831,96.6735c-2.3075,0 -4.1895,1.882 -4.1895,4.1895c0,2.3075 1.882,4.1895 4.1895,4.1895c2.3075,0 4.1895,-1.882 4.1895,-4.1895c0,-2.3075 -1.882,-4.1895 -4.1895,-4.1895zM218.169,96.6735c-2.3075,0 -4.1895,1.882 -4.1895,4.1895c0,2.3075 1.882,4.1895 4.1895,4.1895c2.3075,0 4.1895,-1.882 4.1895,-4.1895c0,-2.3075 -1.882,-4.1895 -4.1895,-4.1895zM33.831,113.4315c-2.3075,0 -4.1895,1.882 -4.1895,4.1895c0,2.3075 1.882,4.1895 4.1895,4.1895c2.3075,0 4.1895,-1.882 4.1895,-4.1895c0,-2.3075 -1.882,-4.1895 -4.1895,-4.1895zM218.169,113.4315c-2.3075,0 -4.1895,1.882 -4.1895,4.1895c0,2.3075 1.882,4.1895 4.1895,4.1895c2.3075,0 4.1895,-1.882 4.1895,-4.1895c0,-2.3075 -1.882,-4.1895 -4.1895,-4.1895zM33.831,130.1895c-2.3075,0 -4.1895,1.882 -4.1895,4.1895c0,2.3075 1.882,4.1895 4.1895,4.1895c2.3075,0 4.1895,-1.882 4.1895,-4.1895c0,-2.3075 -1.882,-4.1895 -4.1895,-4.1895zM218.169,130.1895c-2.3075,0 -4.1895,1.882 -4.1895,4.1895c0,2.3075 1.882,4.1895 4.1895,4.1895c2.3075,0 4.1895,-1.882 4.1895,-4.1895c0,-2.3075 -1.882,-4.1895 -4.1895,-4.1895zM33.831,146.9475c-2.3075,0 -4.1895,1.882 -4.1895,4.1895c0,2.3075 1.882,4.1895 4.1895,4.1895c2.3075,0 4.1895,-1.882 4.1895,-4.1895c0,-2.3075 -1.882,-4.1895 -4.1895,-4.1895zM218.169,146.9475c-2.3075,0 -4.1895,1.882 -4.1895,4.1895c0,2.3075 1.882,4.1895 4.1895,4.1895c2.3075,0 4.1895,-1.882 4.1895,-4.1895c0,-2.3075 -1.882,-4.1895 -4.1895,-4.1895zM33.831,163.7055c-2.3075,0 -4.1895,1.882 -4.1895,4.1895c0,2.3075 1.882,4.1895 4.1895,4.1895c2.3075,0 4.1895,-1.882 4.1895,-4.1895c0,-2.3075 -1.882,-4.1895 -4.1895,-4.1895zM218.169,163.7055c-2.3075,0 -4.1895,1.882 -4.1895,4.1895c0,2.3075 1.882,4.1895 4.1895,4.1895c2.3075,0 4.1895,-1.882 4.1895,-4.1895c0,-2.3075 -1.882,-4.1895 -4.1895,-4.1895zM33.831,180.4635c-2.3075,0 -4.1895,1.882 -4.1895,4.1895c0,2.3075 1.882,4.1895 4.1895,4.1895c2.3075,0 4.1895,-1.882 4.1895,-4.1895c0,-2.3075 -1.882,-4.1895 -4.1895,-4.1895zM218.169,180.4635c-2.3075,0 -4.1895,1.882 -4.1895,4.1895c0,2.3075 1.882,4.1895 4.1895,4.1895c2.3075,0 4.1895,-1.882 4.1895,-4.1895c0,-2.3075 -1.882,-4.1895 -4.1895,-4.1895zM33.831,197.2215c-2.3075,0 -4.1895,1.882 -4.1895,4.1895c0,2.3075 1.882,4.1895 4.1895,4.1895c2.3075,0 4.1895,-1.882 4.1895,-4.1895c0,-2.3075 -1.882,-4.1895 -4.1895,-4.1895zM218.169,197.2215c-2.3075,0 -4.1895,1.882 -4.1895,4.1895c0,2.3075 1.882,4.1895 4.1895,4.1895c2.3075,0 4.1895,-1.882 4.1895,-4.1895c0,-2.3075 -1.882,-4.1895 -4.1895,-4.1895zM33.831,213.9795c-2.3075,0 -4.1895,1.882 -4.1895,4.1895c0,2.3075 1.882,4.1895 4.1895,4.1895c2.3075,0 4.1895,-1.882 4.1895,-4.1895c0,-2.3075 -1.882,-4.1895 -4.1895,-4.1895zM50.589,213.9795c-2.3075,0 -4.1895,1.882 -4.1895,4.1895c0,2.3075 1.882,4.1895 4.1895,4.1895c2.3075,0 4.1895,-1.882 4.1895,-4.1895c0,-2.3075 -1.882,-4.1895 -4.1895,-4.1895zM67.347,213.9795c-2.3075,0 -4.1895,1.882 -4.1895,4.1895c0,2.3075 1.882,4.1895 4.1895,4.1895c2.3075,0 4.1895,-1.882 4.1895,-4.1895c0,-2.3075 -1.882,-4.1895 -4.1895,-4.1895zM84.105,213.9795c-2.3075,0 -4.1895,1.882 -4.1895,4.1895c0,2.3075 1.882,4.1895 4.1895,4.1895c2.3075,0 4.1895,-1.882 4.1895,-4.1895c0,-2.3075 -1.882,-4.1895 -4.1895,-4.1895zM100.863,213.9795c-2.3075,0 -4.1895,1.882 -4.1895,4.1895c0,2.3075 1.882,4.1895 4.1895,4.1895c2.3075,0 4.1895,-1.882 4.1895,-4.1895c0,-2.3075 -1.882,-4.1895 -4.1895,-4.1895zM117.621,213.9795c-2.3075,0 -4.1895,1.882 -4.1895,4.1895c0,2.3075 1.882,4.1895 4.1895,4.1895c2.3075,0 4.1895,-1.882 4.1895,-4.1895c0,-2.3075 -1.882,-4.1895 -4.1895,-4.1895zM134.379,213.9795c-2.3075,0 -4.1895,1.882 -4.1895,4.1895c0,2.3075 1.882,4.1895 4.1895,4.1895c2.3075,0 4.1895,-1.882 4.1895,-4.1895c0,-2.3075 -1.882,-4.1895 -4.1895,-4.1895zM151.137,213.9795c-2.3075,0 -4.1895,1.882 -4.1895,4.1895c0,2.3075 1.882,4.1895 4.1895,4.1895c2.3075,0 4.1895,-1.882 4.1895,-4.1895c0,-2.3075 -1.882,-4.1895 -4.1895,-4.1895zM167.895,213.9795c-2.3075,0 -4.1895,1.882 -4.1895,4.1895c0,2.3075 1.882,4.1895 4.1895,4.1895c2.3075,0 4.1895,-1.882 4.1895,-4.1895c0,-2.3075 -1.882,-4.1895 -4.1895,-4.1895zM184.653,213.9795c-2.3075,0 -4.1895,1.882 -4.1895,4.1895c0,2.3075 1.882,4.1895 4.1895,4.1895c2.3075,0 4.1895,-1.882 4.1895,-4.1895c0,-2.3075 -1.882,-4.1895 -4.1895,-4.1895zM201.411,213.9795c-2.3075,0 -4.1895,1.882 -4.1895,4.1895c0,2.3075 1.882,4.1895 4.1895,4.1895c2.3075,0 4.1895,-1.882 4.1895,-4.1895c0,-2.3075 -1.882,-4.1895 -4.1895,-4.1895zM218.169,213.9795c-2.3075,0 -4.1895,1.882 -4.1895,4.1895c0,2.3075 1.882,4.1895 4.1895,4.1895c2.3075,0 4.1895,-1.882 4.1895,-4.1895c0,-2.3075 -1.882,-4.1895 -4.1895,-4.1895z"/></g></g><path d="M126,252c-69.58788,0 -126,-56.41212 -126,-126v0c0,-69.58788 56.41212,-126 126,-126v0c69.58788,0 126,56.41212 126,126v0c0,69.58788 -56.41212,126 -126,126z" fill="none"/><path d="M126,201.6c-41.75273,0 -75.6,-33.84727 -75.6,-75.6v0c0,-41.75273 33.84727,-75.6 75.6,-75.6v0c41.75273,0 75.6,33.84727 75.6,75.6v0c0,41.75273 -33.84727,75.6 -75.6,75.6z" fill="none"/></g></g></svg>
